<svg width="174" height="170" viewBox="0 0 174 170" fill="none" xmlns="http://www.w3.org/2000/svg">
<path d="M18.605 155.52C12.205 155.52 7.51167 154.453 4.525 152.32C1.53833 150.187 0.0449991 147.2 0.0449991 143.36C0.0449991 140.459 0.940999 138.112 2.733 136.32C4.43967 134.613 6.74367 133.76 9.645 133.76C10.3277 133.76 11.0103 133.803 11.693 133.888C12.3757 134.059 12.845 134.144 13.101 134.144L14.765 134.4V152.32L15.533 152.704C16.3863 152.875 16.9837 152.96 17.325 152.96C19.9703 152.96 22.1037 151.339 23.725 148.096C25.4317 144.939 26.285 139.52 26.285 131.84V67.84L18.605 65.92V64H35.245C42.925 64 46.765 67.84 46.765 75.52V131.84C46.765 136.363 45.6557 140.416 43.437 144C41.2183 147.584 37.9757 150.4 33.709 152.448C29.4423 154.496 24.4077 155.52 18.605 155.52ZM35.245 56.32C32.685 56.32 30.5517 55.4667 28.845 53.76C27.1383 52.0533 26.285 49.92 26.285 47.36C26.285 44.8 27.1383 42.6667 28.845 40.96C30.5517 39.2533 32.685 38.4 35.245 38.4C37.805 38.4 39.9383 39.2533 41.645 40.96C43.3517 42.6667 44.205 44.8 44.205 47.36C44.205 49.92 43.3517 52.0533 41.645 53.76C39.9383 55.4667 37.805 56.32 35.245 56.32ZM61.495 126.08L69.175 124.16V42.24L61.495 40.32V38.4H78.135C85.815 38.4 89.655 42.24 89.655 49.92V94.72L113.335 69.76L103.735 65.92V64H128.055V65.92L117.815 69.76L103.095 85.12L128.055 124.16L134.455 126.08V128H117.815C113.719 128 110.391 127.104 107.831 125.312C105.271 123.52 102.839 120.789 100.535 117.12L89.655 99.84V124.16L97.335 126.08V128H61.495V126.08Z" fill="white"/>
<path d="M148.485 129.28C145.925 129.28 143.664 128.341 141.701 126.464C139.824 124.501 138.885 122.24 138.885 119.68C138.885 117.12 139.824 114.901 141.701 113.024C143.664 111.061 145.925 110.08 148.485 110.08C151.045 110.08 153.264 111.061 155.141 113.024C157.104 114.901 158.085 117.12 158.085 119.68C158.085 122.24 157.104 124.501 155.141 126.464C153.264 128.341 151.045 129.28 148.485 129.28Z" fill="#CDB4DB"/>
</svg>
