<svg width="270" height="213" viewBox="0 0 270 213" fill="none" xmlns="http://www.w3.org/2000/svg">
<path d="M131.857 107.364C131.857 121.533 129.102 133.485 123.592 143.221C118.082 152.916 110.645 160.27 101.282 165.283C91.919 170.254 81.4787 172.74 69.9612 172.74C58.3608 172.74 47.879 170.234 38.5158 165.221C29.1941 160.166 21.7782 152.792 16.268 143.097C10.7992 133.361 8.06485 121.45 8.06485 107.364C8.06485 93.1946 10.7992 81.2628 16.268 71.5682C21.7782 61.8321 29.1941 54.4783 38.5158 49.5067C47.879 44.4937 58.3608 41.9872 69.9612 41.9872C81.4787 41.9872 91.919 44.4937 101.282 49.5067C110.645 54.4783 118.082 61.8321 123.592 71.5682C129.102 81.2628 131.857 93.1946 131.857 107.364ZM96.3106 107.364C96.3106 99.7405 95.2956 93.3189 93.2655 88.0987C91.2769 82.8371 88.3146 78.8598 84.3788 76.1669C80.4844 73.4325 75.6785 72.0653 69.9612 72.0653C64.2438 72.0653 59.4172 73.4325 55.4814 76.1669C51.587 78.8598 48.6248 82.8371 46.5947 88.0987C44.606 93.3189 43.6117 99.7405 43.6117 107.364C43.6117 114.987 44.606 121.429 46.5947 126.691C48.6248 131.911 51.587 135.888 55.4814 138.623C59.4172 141.315 64.2438 142.662 69.9612 142.662C75.6785 142.662 80.4844 141.315 84.3788 138.623C88.3146 135.888 91.2769 131.911 93.2655 126.691C95.2956 121.429 96.3106 114.987 96.3106 107.364Z" fill="#FFFCF2"/>
<path d="M118.815 170L81.2798 42.7273H119.81L137.21 121.03H138.205L158.837 42.7273H189.163L209.795 121.278H210.79L228.19 42.7273H266.72L229.185 170H196.124L174.497 98.9062H173.503L151.876 170H118.815Z" fill="#FFFCF2"/>
</svg>
